<?xml version="1.0" standalone="no"?>
<!DOCTYPE svg PUBLIC "-//W3C//DTD SVG 20010904//EN"
 "http://www.w3.org/TR/2001/REC-SVG-20010904/DTD/svg10.dtd">
<svg version="1.0" xmlns="http://www.w3.org/2000/svg"
 width="100.000000pt" height="100.000000pt" viewBox="0 0 100.000000 100.000000"
 preserveAspectRatio="xMidYMid meet">

<g transform="translate(0.000000,100.000000) scale(0.100000,-0.100000)"
fill="#000000" stroke="none">
<path d="M64 929 c-4 -7 169 -187 424 -442 343 -343 434 -429 444 -419 10 10
-5 29 -70 95 l-83 83 48 31 c26 18 72 56 101 86 65 66 65 69 -44 157 -161 129
-344 186 -478 149 l-39 -11 -141 141 c-78 78 -144 141 -148 141 -4 0 -10 -5
-14 -11z m562 -309 c57 -20 87 -112 64 -195 -7 -25 -17 -48 -22 -51 -5 -4 -25
8 -43 26 -28 27 -33 38 -28 61 13 66 -46 127 -113 116 -25 -4 -37 0 -53 17
-26 27 -26 33 -3 40 27 8 164 -1 198 -14z m164 -84 c58 -38 140 -107 140 -116
0 -10 -127 -113 -159 -130 -20 -10 -26 -9 -51 15 l-28 27 21 42 c23 44 30 139
13 185 -9 27 -9 27 64 -23z"/>
<path d="M221 592 c-74 -45 -179 -129 -193 -157 -10 -17 -1 -28 64 -90 119
-111 279 -184 406 -185 47 0 168 25 191 40 12 7 12 11 2 24 -11 13 -17 13 -54
0 -107 -39 -234 -26 -355 35 -61 31 -212 145 -212 160 0 17 198 166 207 157 2
-2 -1 -15 -7 -30 -28 -75 -3 -163 65 -231 69 -70 152 -92 236 -64 48 17 62 29
49 44 -8 10 -19 9 -53 -2 -159 -56 -310 97 -253 256 15 41 15 46 0 63 -10 10
-20 18 -24 18 -3 0 -34 -17 -69 -38z"/>
<path d="M400 485 c0 -38 25 -79 55 -93 29 -14 75 -16 75 -4 0 10 -113 122
-123 122 -4 0 -7 -11 -7 -25z"/>
</g>
</svg>
